<?xml version="1.0" encoding="UTF-8" standalone="no"?>
<!-- Created with Inkscape (http://www.inkscape.org/) -->

<svg
   width="264.0708mm"
   height="264.17508mm"
   viewBox="0 0 264.0708 264.17508"
   version="1.1"
   id="svg5"
   xml:space="preserve"
   inkscape:version="1.2.1 (9c6d41e410, 2022-07-14)"
   sodipodi:docname="logo.svg"
   xmlns:inkscape="http://www.inkscape.org/namespaces/inkscape"
   xmlns:sodipodi="http://sodipodi.sourceforge.net/DTD/sodipodi-0.dtd"
   xmlns="http://www.w3.org/2000/svg"
   xmlns:svg="http://www.w3.org/2000/svg"><sodipodi:namedview
     id="namedview7"
     pagecolor="#ffffff"
     bordercolor="#000000"
     borderopacity="0.25"
     inkscape:showpageshadow="2"
     inkscape:pageopacity="0.0"
     inkscape:pagecheckerboard="0"
     inkscape:deskcolor="#d1d1d1"
     inkscape:document-units="mm"
     showgrid="false"
     inkscape:zoom="0.68871773"
     inkscape:cx="337.58388"
     inkscape:cy="480.60328"
     inkscape:window-width="1918"
     inkscape:window-height="1003"
     inkscape:window-x="0"
     inkscape:window-y="20"
     inkscape:window-maximized="1"
     inkscape:current-layer="layer1" /><defs
     id="defs2"><rect
       x="217.44427"
       y="836.6626"
       width="385.11157"
       height="194.04245"
       id="rect206" /><inkscape:path-effect
       effect="simplify"
       id="path-effect2268"
       is_visible="true"
       lpeversion="1"
       steps="1"
       threshold="0.0041"
       smooth_angles="0"
       helper_size="5"
       simplify_individual_paths="false"
       simplify_just_coalesce="false" /><inkscape:path-effect
       effect="copy_rotate"
       starting_point="0,0"
       origin="105,148.5"
       id="path-effect1454"
       is_visible="true"
       lpeversion="1.2"
       lpesatellites=""
       method="normal"
       num_copies="7"
       starting_angle="39"
       rotation_angle="51.428571"
       gap="-0.01"
       copies_to_360="true"
       mirror_copies="false"
       split_items="true"
       link_styles="false" /><inkscape:path-effect
       effect="copy_rotate"
       starting_point="0,0"
       origin="105,148.5"
       id="path-effect1384"
       is_visible="true"
       lpeversion="1.2"
       lpesatellites=""
       method="normal"
       num_copies="10"
       starting_angle="0"
       rotation_angle="36"
       gap="-0.01"
       copies_to_360="true"
       mirror_copies="false"
       split_items="true"
       link_styles="false" /></defs><g
     inkscape:label="Layer 1"
     inkscape:groupmode="layer"
     id="layer1"
     transform="translate(27.02699,-16.357767)"><path
       id="path461"
       style="display:inline;fill:#fdbb05;fill-opacity:1;stroke:none;stroke-width:0.422495;stroke-opacity:1"
       d="M 103.01758,16.365234 C 74.89169,17.017156 46.995727,26.641303 24.623589,43.733795 -4.0374087,65.563064 -23.072614,99.622229 -26.421347,135.50974 c -1.80598,18.72924 0.447235,37.82223 6.488603,55.63834 5.716646,16.99972 15.0027274,32.78068 27.0911529,46.03492 18.5515151,20.40665 43.5393731,35.00504 70.6014701,40.52895 27.485631,5.79572 56.842151,2.63151 82.336181,-9.22292 25.54512,-11.71038 47.19115,-31.78451 60.66509,-56.45871 11.92915,-21.66916 17.57217,-46.74308 16.03465,-71.43426 -1.37461,-23.42726 -9.0992,-46.480069 -22.32185,-65.886039 -16.2628,-24.205629 -40.74837,-42.829219 -68.51981,-51.77908 -13.8328,-4.496968 -28.39182,-6.719481 -42.93656,-6.565707 z" /><path
       style="display:inline;fill:#3e435b;fill-opacity:1;stroke-width:0.264583"
       d="m 118.79834,201.8807 c 16.39167,-33.75255 31.88192,-65.64899 47.10678,-96.99895 16.16621,9.52611 28.32397,28.39348 27.09338,47.45193 -0.22485,18.01927 -11.63401,35.02763 -27.58815,43.1045 -8.98482,4.65215 -19.14708,6.68054 -29.24613,6.44252 -6.27639,0 -14.89555,0.006 -17.36588,0 z"
       id="path2250"
       sodipodi:nodetypes="cccccc" /><g
       id="g1667"
       inkscape:label="Beans"
       style="fill:#363c4f;fill-opacity:1"><path
         id="rect520"
         style="display:inline;fill:#363c4f;fill-opacity:1;stroke-width:0.248679"
         d="M -3.8778976,142.08592 A 4.732687,6.4139953 0 0 0 -8.610942,148.5 a 4.732687,6.4139953 0 0 0 4.7330444,6.41408 H 18.046346 A 4.732687,6.4139953 0 0 0 22.779391,148.5 4.732687,6.4139953 0 0 0 18.046346,142.08592 Z"
         transform="translate(2.4966718e-5,-0.03824238)" /><path
         style="display:inline;fill:#363c4f;fill-opacity:1;stroke-width:0.248679"
         id="path1452"
         d="m -3.8778976,142.08592 c -2.6139548,-2.7e-4 -4.7330789,2.87151 -4.7330444,6.41408 -3.45e-5,3.54257 2.1190896,6.41435 4.7330444,6.41408 H 18.046346 c 2.613955,2.7e-4 4.73308,-2.87151 4.733045,-6.41408 3.5e-5,-3.54257 -2.11909,-6.41435 -4.733045,-6.41408 z"
         transform="rotate(36,105.05886,148.48092)" /><path
         style="display:inline;fill:#363c4f;fill-opacity:1;stroke-width:0.248679"
         id="path1618"
         d="m 16.34947,212.0344 c -2.031593,1.64481 -1.871196,5.21021 0.358245,7.96328 2.229387,2.75312 5.683522,3.6513 7.714778,2.00608 L 41.46083,208.20638 c 2.031594,-1.6448 1.871197,-5.2102 -0.358244,-7.96327 -2.229388,-2.75312 -5.683522,-3.6513 -7.714778,-2.00608 z"
         transform="rotate(154.28571,105.00438,148.48088)" /><path
         style="display:inline;fill:#363c4f;fill-opacity:1;stroke-width:0.248679"
         id="path1620"
         d="m 16.34947,212.0344 c -2.031593,1.64481 -1.871196,5.21021 0.358245,7.96328 2.229387,2.75312 5.683522,3.6513 7.714778,2.00608 L 41.46083,208.20638 c 2.031594,-1.6448 1.871197,-5.2102 -0.358244,-7.96327 -2.229388,-2.75312 -5.683522,-3.6513 -7.714778,-2.00608 z"
         transform="rotate(102.85714,105.01526,148.48089)" /><path
         transform="rotate(-36,104.94116,148.48084)"
         style="display:inline;fill:#363c4f;fill-opacity:1;stroke-width:0.248679"
         id="path1648"
         d="m -3.8778976,142.08592 c -2.6139548,-2.7e-4 -4.7330789,2.87151 -4.7330444,6.41408 -3.45e-5,3.54257 2.1190896,6.41435 4.7330444,6.41408 H 18.046346 c 2.613955,2.7e-4 4.73308,-2.87151 4.733045,-6.41408 3.5e-5,-3.54257 -2.11909,-6.41435 -4.733045,-6.41408 z"
         class="UnoptimicedTransforms" /></g><g
       id="g2098"
       inkscape:label="V for Vendetta"
       style="display:inline;fill:#fefefe;fill-opacity:1"><path
         style="fill:#363c4f;fill-opacity:1;stroke:none;stroke-width:0.264583;stroke-opacity:1"
         d="m 74.677507,106.42526 27.668183,57.02523 27.69385,-57.02523 z"
         id="path2151" /><path
         id="path2276"
         style="display:inline;fill:#fefefe;fill-opacity:1;stroke-width:0.22482"
         inkscape:transform-center-x="0.2467632"
         inkscape:transform-center-y="15.087163"
         d="m 55.057104,104.90988 c 15.870047,32.2021 31.598396,64.54191 47.058106,96.97082 16.27988,-32.74611 33.25997,-68.4049 47.37386,-96.97082 -6.23784,-0.002 -12.47575,0.001 -18.71359,0 l -28.42979,58.54061 -28.403433,-58.54061 c -6.295023,0.001 -12.590129,-0.002 -18.885153,0 z"
         sodipodi:nodetypes="ccccccc" /></g><g
       id="g2461"
       inkscape:label="Eye"><circle
         style="display:inline;fill:#ffffff;fill-opacity:1;stroke:none;stroke-width:0.290277;stroke-opacity:1"
         id="path2403"
         cx="171.39514"
         cy="150.83653"
         r="8.5" /><circle
         style="display:inline;fill:#3e435b;fill-opacity:1;stroke:none;stroke-width:0.415494;stroke-opacity:1"
         id="path2457"
         cx="171.39514"
         cy="150.83653"
         r="4.6750002" /></g><text
       xml:space="preserve"
       transform="matrix(0.26458333,0,0,0.26458333,-0.69663395,0)"
       id="text204"
       style="font-size:120px;white-space:pre;shape-inside:url(#rect206);display:none;fill:#333333;fill-opacity:1" /></g></svg>
